<svg id="Layer_1" data-name="Layer 1" xmlns="http://www.w3.org/2000/svg" viewBox="0 0 571.67 415.49"><path d="M507.1,157.52c.92,2,3.24,3.16,6,3q9.2-.66,18.41-1.36a32.79,32.79,0,0,1,8.57.4c1.82.33,2.19.85,1.7,2.64-2.24,8.07-6,15.31-12.29,21a31.22,31.22,0,0,1-10.57,6c-1.19.43-2.81.32-3.23,2a5.58,5.58,0,0,0,3.27,2.68c4.24,1.34,6.78,7.24,6,11.59-.59,3.44-.72,6.95-1.09,10.43-.25,2.45-.89,4.91-.77,7.34.17,3.59-.13,7.15-.25,10.72a6.49,6.49,0,0,0,.73,4.16c.34.51.08,1.4.15,2.11.23,2.37.45,4.74.75,7.1.27,2.13.72,4.23,1,6.35A27,27,0,0,0,527,260c.85,2.21,1,4.66,1.63,7,1.72,6.21,3.54,12.39,5.32,18.59.77,2.66,1.58,5.3,2.31,8,.69,2.52,1.39,5,1.9,7.58.48,2.4,0,2.88-2.72,3.6-1.55-2.14-3.21-4.27-4.7-6.51-2.34-3.51-4.8-7-6.77-10.67a99.58,99.58,0,0,1-5.52-12.46c-2.06-5.61-3.72-11.36-5.53-17-1.15-3.64-2.25-7.29-3.38-10.94-1.4-4.54-4.6-7-9.19-7.55-6.55-.81-13.13-1.44-19.69-2.18-10.62-1.2-21.24-2.45-31.48-5.67-2.48-.78-5.13-1.17-7.33-2.85-1.63-1.25-2.36-2.78-1.52-4.7a8,8,0,0,1,2.95-4,7.2,7.2,0,0,0,1.29-1.06c5.57-5.49,11.19-10.92,16.67-16.5,4-4.09,7.87-8.36,11.74-12.6a6.4,6.4,0,0,0,1.61-3.88c.24-2.52.89-5,1.37-7.51.93-4.85,1.87-9.7,2.77-14.56a12.26,12.26,0,0,0-.1-2.27,24.75,24.75,0,0,0-2.87,1.88,7.36,7.36,0,0,1-5.07,1.78,3.91,3.91,0,0,1-3.05-1.06c-1.32-1.28-2.68-2.51-4-3.78-.34-.33-.65-.7-1-1-3.4-3.52-4.43-3.4-8.48-.77a15,15,0,0,0-7,10.82c-1.1,6.53-2.58,13-4,19.47-.76,3.58-1.67,7.13-2.48,10.7-.4,1.78-.77,3.57-1.07,5.37-.34,2-1.68,2.72-3.74,3.2-1-3-2.76-5.54-3.14-8.69a4.63,4.63,0,0,0-.2-1.18c-1.49-3.44-.12-6.61.9-9.82a14,14,0,0,0,.1-9.35c-.67-1.84-.86-3.86-1.41-5.76a27.88,27.88,0,0,0-1.58-3.46c-.82,1.13-1.33,2-2,2.69-2.24,2.5-3.36,5.55-4.45,8.64a16.77,16.77,0,0,1-5.74,7.8c-3.39,2.63-7.44,3.6-11.38,4.84-2.66.84-5.35,1.54-8,2.34a6.57,6.57,0,0,1-7.23-2.3,22.81,22.81,0,0,1-2.29-4.71c-.58-1.54-.91-3.17-1.44-5.09l-14.87,6c-5.24,2.14-10.44,4.38-15.73,6.4s-10.9,4-16.41,5.86c-4.22,1.41-8.52,2.58-12.81,3.8-4,1.12-8,2.22-12,3.23-1.92.49-3.89.77-5.84,1.14a20.3,20.3,0,0,0-3,.59,6.69,6.69,0,0,1-3.52.23c-1.32-.21-2.71,0-4-.16A38,38,0,0,1,289,208.29c-9.18-4.2-17.79-9.42-26.61-14.27-6.23-3.42-12.4-7-18.67-10.3-4.5-2.41-9-4.83-13.71-6.86a78.52,78.52,0,0,0-17.89-5.22c-4.87-.83-9.71-1.82-14.58-2.58-6.39-1-12.79-1.9-19.21-2.66-4.42-.53-8.89-.73-13.33-1.13-2-.18-4.08-.54-6.14-.68-1.66-.12-3.34,0-5-.06-3.43-.07-6.85-.22-10.28-.25-2.86,0-5.74,0-8.6.14-6.46.4-12.92.9-19.38,1.39-1,.08-2,.3-3.07.48a21.54,21.54,0,0,1-2.59.51c-6.64.33-13,2.12-19.59,3.09-4.25.63-8.52,1.13-12.77,1.78-2.91.45-5.31-.92-7.76-2-1.23-.56-1-1.89-.79-3a2,2,0,0,1,1.91-1.79c3.24-.4,6.48-.83,9.69-1.41s6.37-1.37,9.56-2.07a2.52,2.52,0,0,1,.71-.12c2.58.22,5-.54,7.56-.85A135.91,135.91,0,0,0,112.31,158a18.8,18.8,0,0,1,2.39-.17,14.14,14.14,0,0,0,2.85-.32,31.88,31.88,0,0,1,6.8-1.12c3.3-.3,6.55-1.14,9.83-1.75.23,0,.47-.09.71-.12,3.55-.48,7.11-.89,10.65-1.46s6.86-1.32,10.31-1.87c3.77-.59,7.58-1,11.37-1.55.85-.12,1.7-.32,2.55-.5.54-.12,1.06-.35,1.61-.43,3.79-.53,7.59-1,11.38-1.55,3.38-.52,6.74-1.22,10.12-1.77s6.9-1.08,10.36-1.54c1.85-.25,2.43-.73,2.23-2.61-.26-2.37-.7-4.72-1.07-7.07s-.66-4.58-1.13-6.84c-.67-3.27-1.41-6.54-2.23-9.78-1-3.86-2.06-7.69-3.12-11.53-1-3.53-2-7-3-10.59-1.37-5-2.84-10-4-15-1-4.17-1.38-8.49-2.55-12.6-.94-3.29-.89-6.61-1.44-9.89a38.61,38.61,0,0,1,.16-10.74,15.77,15.77,0,0,1,1.78-5.43c1.6-3,3.12-6.24,5.37-8.75a72,72,0,0,1,9.67-8.51c4.71-3.65,10.19-6,15.59-8.36a62.63,62.63,0,0,1,13.8-4.51c2-.37,4-1.07,5.92-1.6a8.47,8.47,0,0,1,1.43-.18c.47-.05,1.05.1,1.42-.11,2.5-1.44,5.42-.91,8.06-1.83,1.76-.61,3.77-.49,5.66-.76,1.41-.2,2.79-.51,4.19-.78a13.36,13.36,0,0,1,1.39-.33c6.29-.55,12.57-1.15,18.86-1.58,3-.21,6,0,9.07-.15,2.23-.11,4.45-.45,6.68-.68a7.74,7.74,0,0,1,.95-.13h11.47c1.51,0,3-.06,4.54,0,3.1,0,6.21.1,9.31.2,2.78.09,5.56.23,8.34.36l7.84.37c2.07.1,4.14.18,6.21.3,3.57.22,7.15.4,10.71.71,6.66.58,13.32,1.25,20,1.88,6.26.6,12.54,1.14,18.79,1.82,3.17.35,6.3,1,9.45,1.46,5.36.76,10.74,1.38,16.08,2.2,4,.61,8,1.48,12,2.16,1.64.28,3.32.29,5,.59,4.38.83,8.74,1.77,13.12,2.63,3.59.71,7.21,1.33,10.8,2.08,4,.83,7.94,1.76,11.91,2.64,4.43,1,8.88,1.91,13.29,3,5.41,1.33,10.77,2.81,16.16,4.21,3.71,1,7.44,1.82,11.12,2.89,3.43,1,6.79,2.24,10.19,3.35,2.95,1,6,1.73,8.87,2.88,6.14,2.44,12.43,4.47,18.4,7.4,3.89,1.9,7.64,4,11.34,6.17A14.14,14.14,0,0,1,566.31,57a8.69,8.69,0,0,1,1,7.13c-.28,1.22-.44,2.47-.7,3.7s-.67,2.74-1,4.12q-1.47,6.42-2.92,12.83c-1,4.35-2,8.69-2.93,13-1.49,6.76-3,13.51-4.39,20.29-1.1,5.3-2,10.66-3.08,16a31.21,31.21,0,0,1-2,6.09c-1.48,3.4-4.46,5.15-7.8,6.26-7.4,2.47-14.85,4.82-22.26,7.27-2.72.89-5.36,2-8.09,2.84A45.13,45.13,0,0,1,507.1,157.52Z"/><path d="M391.92,409.7c-.95-2.08-.17-3.81.08-5.48,1.48-10,3.12-20,4.64-30a40.31,40.31,0,0,0,.11-4.54c0-1,.12-1.9.19-2.85a3.32,3.32,0,0,0,.1-.92c-1.17-4.92-1.4-10.06-3.27-14.81q-1.75-4.45-3.82-8.76a45.5,45.5,0,0,0-3.49-6.26c-2.18-3.14-5.34-5.21-8.6-7.08-3.52-2-7.22-3.77-10.65-5.94a16.45,16.45,0,0,0-13.61-1.78c-3.77,1.05-7.24,3.23-10.75,5.1-2.24,1.19-4.3,2.73-6.44,4.11l-7.86,5c-1.75,1.11-3.51,2.19-5.26,3.28-2,1.26-4,2.56-6.07,3.77-4.47,2.63-8.85,5.44-13.5,7.72-1.88.93-4.34.8-6.55.94-2.72.18-3.13-.23-4-2.71a1.48,1.48,0,0,1,.62-2.05c.55-.32,1.12-.63,1.67-.94l15.38-8.8c2.63-1.5,5.33-2.91,7.89-4.54,4.65-2.93,9.21-6,13.82-9,1.41-.91,2.88-1.72,4.26-2.67q5.83-4,11.61-8c4.9-3.41,9.82-6.79,14.67-10.26,3.05-2.18,6-4.5,9-6.75,3.77-2.83,7.55-5.64,11.3-8.49s7.56-5.84,11.36-8.75c3-2.32,6.12-4.58,9.13-6.94,3.46-2.7,6.83-5.51,10.29-8.22s7.23-5.51,10.82-8.28,7.3-5.69,10.93-8.55c1.78-1.41,2.13-1.22,3.36.77,2.55,4.15,3.3,8.69,3.63,13.44a72.85,72.85,0,0,1-.72,14.76c-.69,5.14-1.34,10.28-2.11,15.41-.4,2.66-.95,5.29-1.54,7.91-1.26,5.6-2.44,11.23-3.92,16.77-1.78,6.7-3.81,13.32-5.77,20-1,3.28-1.93,6.57-3,9.83-1.56,4.68-3.23,9.32-4.83,14-.44,1.28-.69,2.62-1.19,3.88-2.91,7.32-5.69,14.7-8.89,21.89A82,82,0,0,1,404,397.14,45.89,45.89,0,0,1,393.3,408.9C392.93,409.16,392.52,409.35,391.92,409.7Z"/><path d="M111.86,392.09a2.35,2.35,0,0,1-1.45,2.54c-5.12,3.15-10.45,5.91-16.36,7.21a36.68,36.68,0,0,1-7.62.67,4.35,4.35,0,0,1-2.63-1.36A6.85,6.85,0,0,1,82,396.57c-.14-2.15-.36-4.3-.55-6.45a9,9,0,0,1,2.54-7c4.16-4.59,4.77-9.69,2.66-15.35-2.33-6.29-4.68-12.58-6.83-18.93A37,37,0,0,1,78,340.7c-.28-2.84-1.33-5.62-1.45-8.45-.21-5.08-.42-10.19.44-15.26.29-1.73.49-3.48.77-5.22.16-.94.62-1.68,1.73-1.61a1.62,1.62,0,0,1,1.63,1.71q.27,3.11.59,6.21a47.7,47.7,0,0,0,3.37,12.18c1.7,4.47,3.62,8.85,5.36,13.31,3.08,7.87,6.37,15.68,9.07,23.69,2.13,6.3,3.12,12.88,1.24,19.55a3.92,3.92,0,0,0,.14,3.24,3.5,3.5,0,0,0,3.22,2.08c1.52,0,3-.16,4.55-.17C109.71,391.94,110.78,392,111.86,392.09Z"/><path d="M180.72,231.89c2.43,3,4.7,5.73,7,8.48q5.07,6.06,10.17,12.06c3.57,4.21,7.18,8.36,10.7,12.6,3.36,4.05,6.46,8.33,10,12.23a44.23,44.23,0,0,1,6.61,10.2,13.59,13.59,0,0,0,8.46,6.94c1.52.5,3.07.9,4.53,1.52s1.6,1.07,1.11,2.64c-.12.38-.28.74-.39,1.13-.26,1-.81,1.19-1.79,1-4-.8-8-1.52-12-2.27-.86-.17-1.72-.35-2.59-.5a4.59,4.59,0,0,1-4.1-4.28c-.27-1.89-.46-3.8-.91-5.65-.62-2.6-2.68-4.31-4.34-6.22-3.82-4.41-7.79-8.68-11.6-13.09-6-6.88-12-13.74-17.7-20.8a36.34,36.34,0,0,1-6.09-10.81c-.68-1.92-2-3.61-1.86-5.87a5.59,5.59,0,0,1,1.29-3.73c2.51-2.67,5-5.38,7.5-8,4-4.22,8-8.45,12.13-12.59,4.5-4.53,9.1-9,13.65-13.46.74-.73,1.39-1.55,2.18-2.22a1.43,1.43,0,0,1,1.26-.24,1.34,1.34,0,0,1,.43,1.2,9.33,9.33,0,0,1-.91,2.46c-2.17,3.89-4.1,8-6.65,11.59a88,88,0,0,1-16.9,18.52,57.32,57.32,0,0,1-7.89,5.79C181.58,230.72,181.29,231.26,180.72,231.89Z"/><path d="M120.33,374.63a32.22,32.22,0,0,1,2.27-3.75c1.82-2.32,3.79-4.53,5.71-6.78a6.05,6.05,0,0,1,.86-.82c3.89-3.06,7.77-6.13,11.69-9.14,3.73-2.87,7.55-5.62,11.26-8.51,4.35-3.38,8.6-6.89,12.95-10.27,3.09-2.39,6.28-4.66,9.44-7,3.59-2.63,7.16-5.31,10.82-7.86,5.16-3.61,10.18-7.48,16.4-9.25,4.59-1.31,9.18-2.69,13.73-4.14a8.78,8.78,0,0,1,4-.12c1,.14,1.95.14,2.1,1.47a2.54,2.54,0,0,1-1.31,2.83c-1,.56-2.13,1.08-3.17,1.66-9.69,5.42-19.34,10.92-29.08,16.24-4.7,2.57-9.17,5.5-13.74,8.26s-9,5.8-13.35,8.84c-4.78,3.31-9.46,6.78-14.12,10.26-4.86,3.63-9.61,7.4-14.46,11-3.07,2.3-6.23,4.48-9.39,6.64a10.43,10.43,0,0,1-2.27.85Z"/><path d="M238.4,304.18c.39,1.66.62,3,1,4.24a8.81,8.81,0,0,0,4.25,5.54,30.21,30.21,0,0,0,5,2.2,37.77,37.77,0,0,1,14.68,8.69c6.59,6.22,11.88,13.47,17.11,20.78,1.33,1.85,2.33,3.93,3.67,6.22a6.51,6.51,0,0,1-1.69.07,18.26,18.26,0,0,1-8.79-5.49,34.77,34.77,0,0,0-3.29-3.13c-4.7-4.08-9.38-8.19-14.18-12.15a71.55,71.55,0,0,0-6.28-4.28c-2.53-1.66-5-3.33-7.62-4.92a45.72,45.72,0,0,0-4.42-2.37c-3.85-1.86-5-5.75-3.85-9.53.54-1.84,1.92-3.44,3-5.1C237.23,304.62,237.79,304.51,238.4,304.18Z"/><path d="M78.57,308.74a25.86,25.86,0,0,1,0-4,49.31,49.31,0,0,0,.19-15.52,67.39,67.39,0,0,0-6.68-21.59c-1.15-2.18-2.2-4.43-3.33-6.62-3-5.91-7.09-11.17-10.76-16.67-1-1.44-1.89-2.9-3.08-4.72,2.68.35,4.89.81,6.53,2.5a64.53,64.53,0,0,1,5.39,6.08c5.31,7,8.63,15.08,11.31,23.41.63,2,.9,4.05,1.36,6.07.93,4,2,8,2,12.23-.08,5.5.38,11-1.1,16.44C80.15,307.24,80.24,308.35,78.57,308.74Z"/><path d="M20.09,206a62.77,62.77,0,0,1-1.23,6.28c-.44,1.45-1.1,1.4-2.29.42-2.63-2.18-5.27-4.36-8-6.39a4.32,4.32,0,0,1-2-3.32c-.32-3.65-.79-7.3-1.19-10.94-.21-1.9.2-2.3,2.1-2a4.62,4.62,0,0,1,1.17.26c5.07,2.26,9.19,5.48,10.68,11.14a31.92,31.92,0,0,1,.52,4.51Z"/></svg>