<?xml version="1.0" standalone="no"?>
<!DOCTYPE svg PUBLIC "-//W3C//DTD SVG 20010904//EN"
 "http://www.w3.org/TR/2001/REC-SVG-20010904/DTD/svg10.dtd">
<svg version="1.0" xmlns="http://www.w3.org/2000/svg"
 width="402.000000pt" height="402.000000pt" viewBox="0 0 402.000000 402.000000"
 preserveAspectRatio="xMidYMid meet">
<metadata>
Created by potrace 1.14, written by Peter Selinger 2001-2017
</metadata>
<g transform="translate(0.000000,402.000000) scale(0.100000,-0.100000)"
fill="#000000" stroke="none">
<path d="M3692 3465 c-45 -23 -137 -63 -205 -90 -120 -47 -227 -108 -298 -169
-99 -85 -188 -156 -197 -156 -5 0 -15 -6 -21 -14 -7 -8 -36 -26 -66 -41 -30
-14 -61 -35 -68 -46 -8 -10 -51 -42 -97 -70 -46 -27 -110 -74 -143 -104 -33
-30 -78 -64 -101 -76 -22 -11 -53 -33 -69 -47 -21 -20 -30 -23 -39 -14 -21 21
-48 14 -48 -11 0 -38 -69 -83 -85 -57 -4 7 -16 2 -33 -15 -20 -20 -32 -24 -53
-20 -36 8 -76 -13 -122 -64 -33 -37 -42 -53 -34 -65 1 -2 -7 -13 -17 -25 -14
-15 -22 -18 -32 -10 -7 5 -29 9 -50 7 -33 -3 -40 1 -52 25 -7 15 -19 27 -26
27 -8 0 -17 7 -20 16 -10 27 -7 100 7 135 8 19 13 41 12 49 -1 8 5 23 13 32
12 14 12 23 3 45 -6 16 -11 53 -10 83 0 30 -4 69 -9 86 -6 18 -6 37 -1 45 18
28 8 81 -29 161 -48 103 -92 151 -207 222 -131 82 -146 85 -350 57 -38 -5 -79
-12 -90 -14 -11 -3 -38 -8 -61 -11 -50 -9 -104 -44 -184 -121 -82 -78 -124
-148 -135 -225 -1 -12 -60 -158 -91 -227 -8 -17 -17 -46 -21 -65 -3 -18 -18
-58 -32 -88 -22 -47 -25 -69 -26 -153 0 -66 4 -100 12 -105 18 -11 -2 -79 -33
-116 -18 -21 -22 -32 -14 -41 8 -10 2 -18 -25 -35 -28 -17 -84 -96 -76 -108 1
-1 -8 -36 -20 -78 -17 -58 -28 -78 -48 -89 -19 -11 -21 -14 -8 -15 21 0 22
-23 2 -40 -8 -6 -33 -14 -55 -17 -48 -7 -46 -12 6 -19 21 -3 40 -7 42 -9 11
-10 -45 -200 -86 -290 -24 -55 -64 -154 -89 -220 -25 -66 -62 -150 -83 -186
-36 -64 -78 -162 -86 -204 -2 -11 -6 -31 -9 -45 -3 -14 -7 -45 -10 -69 -3 -23
-7 -55 -10 -70 -2 -14 -7 -63 -10 -108 l-6 -83 135 0 c149 0 142 -3 152 73 7
55 36 190 46 217 6 14 12 36 14 50 7 54 182 442 213 473 5 5 19 -5 33 -21 23
-27 25 -38 27 -143 4 -245 7 -273 25 -302 11 -16 18 -44 18 -70 -1 -23 -2 -69
-2 -102 -1 -33 -10 -84 -21 -113 -10 -29 -19 -55 -19 -57 0 -10 1149 -5 1155
5 14 23 14 59 -1 115 -21 80 -23 103 -9 145 7 19 11 53 10 75 0 22 4 46 11 52
7 7 18 45 24 85 7 40 19 96 27 123 16 58 31 154 43 278 5 50 15 99 24 112 16
25 20 49 13 94 -16 107 87 354 138 334 8 -3 15 0 15 5 0 6 7 12 16 14 11 2 18
16 20 37 5 43 9 47 29 31 10 -8 15 -9 15 -1 0 6 7 11 15 11 9 0 27 8 41 17 15
9 45 16 72 16 26 0 53 4 60 10 8 7 12 5 12 -5 0 -35 60 -60 145 -62 28 -1 30
1 28 35 -1 32 1 35 22 32 32 -7 44 34 37 125 -3 50 -1 72 7 72 6 0 11 -5 11
-10 0 -14 83 -51 92 -42 9 9 -9 79 -21 87 -24 14 36 106 78 120 9 3 27 21 41
40 14 19 32 37 42 40 39 13 488 478 488 505 0 11 34 27 73 34 83 15 98 19 103
27 3 5 12 9 20 9 23 0 108 -41 117 -56 4 -8 19 -14 31 -14 41 0 48 55 16 108
-11 18 -20 34 -20 36 0 3 15 13 33 24 87 54 175 17 198 -83 21 -96 23 -100 48
-100 19 0 25 6 28 30 2 17 15 39 29 51 23 19 24 22 9 34 -9 7 -13 20 -10 29 9
24 -34 126 -68 161 -33 34 -99 69 -129 70 -36 0 -16 31 44 70 33 22 64 40 68
40 5 0 10 7 14 15 4 13 -7 15 -72 14 -69 -1 -85 -6 -160 -44z"/>
</g>
</svg>
